<svg class="SvgIcon house size-small"><svg viewBox="0 0 24 24"><path fill-rule="evenodd" clip-rule="evenodd" d="M20 14h-1.75a.25.25 0 00-.25.25v1.5c0 .138.112.25.25.25H20v2h-2.75a.25.25 0 00-.25.25v1.5c0 .138.112.25.25.25H20v2h-5v-7.75a.25.25 0 00-.25-.25h-5.5a.25.25 0 00-.25.25V22H4v-2h1.75a.25.25 0 00.25-.25v-1.5a.25.25 0 00-.25-.25H4v-2h2.75a.25.25 0 00.25-.25v-1.5a.25.25 0 00-.25-.25H4V9.837l8-6.545 8 6.545V14zm-9 2h2v6h-2v-6zm7-13h2v4.254l-2-1.637V3zm6 7h-.643L22 8.89V1.25a.25.25 0 00-.25-.25h-5.5a.25.25 0 00-.25.25v2.731L12.158.838a.247.247 0 00-.316 0L.643 10H0v1.75c0 .138.112.25.25.25H2v11.75c0 .138.112.25.25.25h19.5a.25.25 0 00.25-.25V12h1.75a.25.25 0 00.25-.25V10z"></path></svg></svg>