<svg class="SvgIcon condo-2 size-small"><svg viewBox="0 0 24 24"><path d="M17 5V.25a.25.25 0 00-.25-.25H.25A.25.25 0 000 .25v23.5c0 .138.112.25.25.25h23.5a.25.25 0 00.25-.25V5.25a.25.25 0 00-.25-.25H17zM7 19h3v3H7v-3zm8 3h-3v-4.75a.25.25 0 00-.25-.25h-6.5a.25.25 0 00-.25.25V22H2V2h13v20zm2-15h5v15h-5V7zm-5.25 8h-1.5a.25.25 0 01-.25-.25v-1.5a.25.25 0 01.25-.25h1.5a.25.25 0 01.25.25v1.5a.25.25 0 01-.25.25zm-5 0h-1.5a.25.25 0 01-.25-.25v-1.5a.25.25 0 01.25-.25h1.5a.25.25 0 01.25.25v1.5a.25.25 0 01-.25.25zm5-4h-1.5a.25.25 0 01-.25-.25v-1.5a.25.25 0 01.25-.25h1.5a.25.25 0 01.25.25v1.5a.25.25 0 01-.25.25zm-5 0h-1.5a.25.25 0 01-.25-.25v-1.5A.25.25 0 015.25 9h1.5a.25.25 0 01.25.25v1.5a.25.25 0 01-.25.25zm5-4h-1.5a.25.25 0 01-.25-.25v-1.5a.25.25 0 01.25-.25h1.5a.25.25 0 01.25.25v1.5a.25.25 0 01-.25.25zm-5 0h-1.5A.25.25 0 015 6.75v-1.5A.25.25 0 015.25 5h1.5a.25.25 0 01.25.25v1.5a.25.25 0 01-.25.25zm13 12a.25.25 0 00.25-.25v-1.5a.25.25 0 00-.25-.25h-1.5a.25.25 0 00-.25.25v1.5c0 .138.112.25.25.25h1.5zm0-4a.25.25 0 00.25-.25v-1.5a.25.25 0 00-.25-.25h-1.5a.25.25 0 00-.25.25v1.5c0 .138.112.25.25.25h1.5zm0-4a.25.25 0 00.25-.25v-1.5a.25.25 0 00-.25-.25h-1.5a.25.25 0 00-.25.25v1.5c0 .138.112.25.25.25h1.5z"></path></svg></svg>