<svg class="SvgIcon townhouse-2 size-small"><svg viewBox="0 0 24 23"><path d="M23.927 7.927l-6.75-6.75a.25.25 0 00-.354 0L12.02 6 7.177 1.176a.25.25 0 00-.353 0L.073 7.927A.249.249 0 000 8.104V10h1v13.75c0 .138.112.25.25.25h21.5a.25.25 0 00.25-.25V10h1V8.104a.249.249 0 00-.073-.177zM7 18h2v4H7v-4zm8 0h2v4h-2v-4zm6 4h-2v-5.75a.25.25 0 00-.25-.25h-5.5a.25.25 0 00-.25.25V22h-2v-5.75a.25.25 0 00-.25-.25h-5.5a.25.25 0 00-.25.25V22H3V8l4.02-4 5 5 5-5 4 4L21 22zm-10.25-9a.25.25 0 00.25-.25v-1.5a.25.25 0 00-.25-.25h-1.5a.25.25 0 00-.25.25v1.5c0 .138.112.25.25.25h1.5zm-4 0a.25.25 0 00.25-.25v-1.5a.25.25 0 00-.25-.25h-1.5a.25.25 0 00-.25.25v1.5c0 .138.112.25.25.25h1.5zm12 0a.25.25 0 00.25-.25v-1.5a.25.25 0 00-.25-.25h-1.5a.25.25 0 00-.25.25v1.5c0 .138.112.25.25.25h1.5zm-4 0a.25.25 0 00.25-.25v-1.5a.25.25 0 00-.25-.25h-1.5a.25.25 0 00-.25.25v1.5c0 .138.112.25.25.25h1.5z"></path></svg></svg>