<svg class="SvgIcon land-2 size-small"><svg viewBox="0 0 18 24"><path d="M21 9A9 9 0 0011.735.004C6.877.143 2.906 4.322 3.002 9.18c.089 4.551 3.557 8.27 7.998 8.761v5.809c0 .138.112.25.25.25h1.5a.25.25 0 00.25-.25v-5.809c4.499-.498 8-4.309 8-8.941zm-8 6.92v-1.727l3.117-1.169a.25.25 0 00.147-.322l-.528-1.405a.25.25 0 00-.322-.146L13 12.057v-1.439l2.224-1.112a.25.25 0 00.112-.335l-.672-1.342a.25.25 0 00-.335-.112L13 8.382V6.25a.25.25 0 00-.25-.25h-1.5a.25.25 0 00-.25.25v2.132l-1.329-.665a.25.25 0 00-.335.112l-.672 1.342a.25.25 0 00.112.335L11 10.618v1.439l-2.414-.906a.25.25 0 00-.322.146l-.528 1.405a.25.25 0 00.147.322L11 14.193v1.727a7.004 7.004 0 01-5.914-8.032c.441-2.847 2.674-5.193 5.502-5.749A7.012 7.012 0 0119 9c0 3.519-2.614 6.432-6 6.92z"></path></svg></svg>